<svg width="36" height="36" viewBox="0 0 36 36" fill="none" xmlns="http://www.w3.org/2000/svg">
<path fill-rule="evenodd" clip-rule="evenodd" d="M31.7109 4.08649V6.03243C31.7109 11.1167 29.3482 15.6455 25.6675 18.5676C29.1813 19.7629 31.7109 23.1085 31.7109 27.0486C31.7109 31.9429 27.808 35.9198 22.9635 35.9988L22.8164 36H0V34.0541C0 28.9698 2.36274 24.441 6.04349 21.5189C2.52962 20.3236 0 16.978 0 13.0378C0 8.14358 3.90297 4.16673 8.74744 4.08769L8.89453 4.08649H31.7109ZM22.8164 21.9892H15.8555C9.95621 21.9892 5.05216 26.2774 4.05317 31.9255L4.02226 32.1081H22.8164C25.5377 32.1081 27.754 29.9322 27.8411 27.2148L27.8431 27.1323L27.8438 27.0486C27.8438 24.2823 25.6377 22.0345 22.8995 21.9899L22.8164 21.9892ZM27.6885 7.97838H8.89453C6.11801 7.97838 3.86719 10.2436 3.86719 13.0378C3.86719 15.8042 6.07321 18.0519 8.81139 18.0966L8.89453 18.0973H15.8555C21.7547 18.0973 26.6588 13.8091 27.6578 8.16098L27.6885 7.97838Z" fill="url(#paint0_linear_261_2426)"/>
<defs>
<linearGradient id="paint0_linear_261_2426" x1="0" y1="4.08649" x2="31.9129" y2="35.7968" gradientUnits="userSpaceOnUse">
<stop stop-color="#1450FF"/>
<stop offset="1" stop-color="#14B4FF"/>
</linearGradient>
</defs>
</svg>
